<?xml version="1.0" encoding="UTF-8"?>
<svg width="200" height="200" viewBox="0 0 200 200" xmlns="http://www.w3.org/2000/svg">
    <!-- Main Circle -->
    <circle cx="100" cy="100" r="90" fill="#2ecc71" fill-opacity="0.1"/>
    
    <!-- Wheat Stalk Left -->
    <path d="M85 140
             C85 140, 60 100, 60 70
             C60 50, 70 40, 85 45
             C100 50, 85 80, 85 100"
          fill="#27ae60"
          transform="rotate(-15 85 90)"/>
          
    <!-- Wheat Stalk Right -->
    <path d="M115 140
             C115 140, 140 100, 140 70
             C140 50, 130 40, 115 45
             C100 50, 115 80, 115 100"
          fill="#27ae60"
          transform="rotate(15 115 90)"/>
    
    <!-- Digital Circuit Lines -->
    <path d="M60 120
             L90 120
             L100 110
             L110 120
             L140 120"
          stroke="#2ecc71"
          stroke-width="4"
          fill="none"/>
    
    <!-- Circuit Nodes -->
    <circle cx="60" cy="120" r="4" fill="#2ecc71"/>
    <circle cx="100" cy="110" r="4" fill="#2ecc71"/>
    <circle cx="140" cy="120" r="4" fill="#2ecc71"/>
    
    <!-- Modern Farm Building -->
    <path d="M85 130
             L100 110
             L115 130
             L115 150
             L85 150
             Z"
          fill="#2ecc71"/>
    
    <!-- Sun/Gear Hybrid -->
    <circle cx="100" cy="70" r="15" fill="#27ae60"/>
    <path d="M100 45 L100 55 M85 70 L95 70 M105 70 L115 70 M100 85 L100 95
             M88 58 L95 65 M105 65 L112 58 M88 82 L95 75 M105 75 L112 82"
          stroke="#27ae60"
          stroke-width="4"
          stroke-linecap="round"/>
    
    <!-- Circular Border -->
    <circle cx="100" cy="100" r="90" 
            fill="none" 
            stroke="#2ecc71" 
            stroke-width="4"
            stroke-dasharray="4,4"/>
</svg>
